<?xml version="1.0" encoding="UTF-8"?>
<!DOCTYPE svg PUBLIC "-//W3C//DTD SVG 1.1//EN" "http://www.w3.org/Graphics/SVG/1.1/DTD/svg11.dtd">
<svg version="1.2" width="151.02mm" height="155.13mm" viewBox="4200 2450 15102 15513" preserveAspectRatio="xMidYMid" fill-rule="evenodd" stroke-width="28.222" stroke-linejoin="round" xmlns="http://www.w3.org/2000/svg" xmlns:ooo="http://xml.openoffice.org/svg/export" xmlns:xlink="http://www.w3.org/1999/xlink" xmlns:presentation="http://sun.com/xmlns/staroffice/presentation" xmlns:smil="http://www.w3.org/2001/SMIL20/" xmlns:anim="urn:oasis:names:tc:opendocument:xmlns:animation:1.0" xmlns:svg="urn:oasis:names:tc:opendocument:xmlns:svg-compatible:1.0" xml:space="preserve">
 <defs class="EmbeddedBulletChars">
  <g id="bullet-char-template-57356" transform="scale(0.00048828125,-0.00048828125)">
   <path d="M 580,1141 L 1163,571 580,0 -4,571 580,1141 Z"/>
  </g>
  <g id="bullet-char-template-57354" transform="scale(0.00048828125,-0.00048828125)">
   <path d="M 8,1128 L 1137,1128 1137,0 8,0 8,1128 Z"/>
  </g>
  <g id="bullet-char-template-10146" transform="scale(0.00048828125,-0.00048828125)">
   <path d="M 174,0 L 602,739 174,1481 1456,739 174,0 Z M 1358,739 L 309,1346 659,739 1358,739 Z"/>
  </g>
  <g id="bullet-char-template-10132" transform="scale(0.00048828125,-0.00048828125)">
   <path d="M 2015,739 L 1276,0 717,0 1260,543 174,543 174,936 1260,936 717,1481 1274,1481 2015,739 Z"/>
  </g>
  <g id="bullet-char-template-10007" transform="scale(0.00048828125,-0.00048828125)">
   <path d="M 0,-2 C -7,14 -16,27 -25,37 L 356,567 C 262,823 215,952 215,954 215,979 228,992 255,992 264,992 276,990 289,987 310,991 331,999 354,1012 L 381,999 492,748 772,1049 836,1024 860,1049 C 881,1039 901,1025 922,1006 886,937 835,863 770,784 769,783 710,716 594,584 L 774,223 C 774,196 753,168 711,139 L 727,119 C 717,90 699,76 672,76 641,76 570,178 457,381 L 164,-76 C 142,-110 111,-127 72,-127 30,-127 9,-110 8,-76 1,-67 -2,-52 -2,-32 -2,-23 -1,-13 0,-2 Z"/>
  </g>
  <g id="bullet-char-template-10004" transform="scale(0.00048828125,-0.00048828125)">
   <path d="M 285,-33 C 182,-33 111,30 74,156 52,228 41,333 41,471 41,549 55,616 82,672 116,743 169,778 240,778 293,778 328,747 346,684 L 369,508 C 377,444 397,411 428,410 L 1163,1116 C 1174,1127 1196,1133 1229,1133 1271,1133 1292,1118 1292,1087 L 1292,965 C 1292,929 1282,901 1262,881 L 442,47 C 390,-6 338,-33 285,-33 Z"/>
  </g>
  <g id="bullet-char-template-9679" transform="scale(0.00048828125,-0.00048828125)">
   <path d="M 813,0 C 632,0 489,54 383,161 276,268 223,411 223,592 223,773 276,916 383,1023 489,1130 632,1184 813,1184 992,1184 1136,1130 1245,1023 1353,916 1407,772 1407,592 1407,412 1353,268 1245,161 1136,54 992,0 813,0 Z"/>
  </g>
  <g id="bullet-char-template-8226" transform="scale(0.00048828125,-0.00048828125)">
   <path d="M 346,457 C 273,457 209,483 155,535 101,586 74,649 74,723 74,796 101,859 155,911 209,963 273,989 346,989 419,989 480,963 531,910 582,859 608,796 608,723 608,648 583,586 532,535 482,483 420,457 346,457 Z"/>
  </g>
  <g id="bullet-char-template-8211" transform="scale(0.00048828125,-0.00048828125)">
   <path d="M -4,459 L 1135,459 1135,606 -4,606 -4,459 Z"/>
  </g>
  <g id="bullet-char-template-61548" transform="scale(0.00048828125,-0.00048828125)">
   <path d="M 173,740 C 173,903 231,1043 346,1159 462,1274 601,1332 765,1332 928,1332 1067,1274 1183,1159 1299,1043 1357,903 1357,740 1357,577 1299,437 1183,322 1067,206 928,148 765,148 601,148 462,206 346,322 231,437 173,577 173,740 Z"/>
  </g>
 </defs>
 <g class="Page">
  <g class="Group">
   <g class="com.sun.star.drawing.LineShape">
    <g id="id3">
     <rect class="BoundingBox" stroke="none" fill="none" x="4200" y="8262" width="10752" height="402"/>
     <path fill="none" stroke="rgb(0,0,0)" stroke-width="400" stroke-linejoin="round" d="M 4401,8463 L 14750,8462"/>
    </g>
   </g>
   <g class="com.sun.star.drawing.PolyLineShape">
    <g id="id4">
     <rect class="BoundingBox" stroke="none" fill="none" x="5300" y="10300" width="2401" height="4401"/>
     <path fill="none" stroke="rgb(0,0,0)" stroke-width="400" stroke-linejoin="round" d="M 5550,10500 L 7500,12500 5500,14500"/>
    </g>
   </g>
   <g class="com.sun.star.drawing.LineShape">
    <g id="id5">
     <rect class="BoundingBox" stroke="none" fill="none" x="7400" y="14224" width="4753" height="403"/>
     <path fill="none" stroke="rgb(0,0,0)" stroke-width="400" stroke-linejoin="round" d="M 7601,14425 L 11951,14425"/>
    </g>
   </g>
   <g class="com.sun.star.drawing.ClosedBezierShape">
    <g id="id6">
     <rect class="BoundingBox" stroke="none" fill="none" x="11950" y="2450" width="7352" height="7853"/>
     <path fill="rgb(0,0,0)" stroke="none" d="M 12163,6425 C 12155,6410 12150,6393 12150,6375 12150,6357 12155,6340 12163,6325 12171,6312 12181,6301 12194,6292 L 14239,4897 15539,2699 C 15548,2684 15560,2672 15575,2663 15590,2655 15607,2650 15625,2650 15643,2650 15660,2655 15675,2663 15690,2672 15702,2684 15711,2699 L 17011,4897 19057,6292 C 19070,6301 19080,6312 19088,6325 19096,6340 19101,6357 19101,6375 19101,6393 19096,6410 19088,6425 19080,6438 19070,6449 19057,6458 L 17011,7853 15711,10052 C 15702,10067 15690,10079 15675,10088 15660,10096 15643,10101 15625,10101 15607,10101 15590,10096 15575,10088 15560,10079 15548,10067 15539,10052 L 14239,7853 12194,6458 C 12181,6449 12171,6438 12163,6425 Z M 14400,7732 L 15625,9804 16850,7732 C 16857,7719 16868,7709 16880,7700 L 18823,6375 16880,5050 C 16868,5041 16857,5031 16850,5018 L 15625,2946 14400,5018 C 14393,5031 14382,5041 14370,5050 L 12427,6375 14370,7700 C 14382,7709 14393,7719 14400,7732 Z"/>
     <path fill="none" stroke="rgb(0,0,0)" stroke-width="400" stroke-linejoin="round" d="M 12163,6425 C 12155,6410 12150,6393 12150,6375 12150,6357 12155,6340 12163,6325 12171,6312 12181,6301 12194,6292 L 14239,4897 15539,2699 C 15548,2684 15560,2672 15575,2663 15590,2655 15607,2650 15625,2650 15643,2650 15660,2655 15675,2663 15690,2672 15702,2684 15711,2699 L 17011,4897 19057,6292 C 19070,6301 19080,6312 19088,6325 19096,6340 19101,6357 19101,6375 19101,6393 19096,6410 19088,6425 19080,6438 19070,6449 19057,6458 L 17011,7853 15711,10052 C 15702,10067 15690,10079 15675,10088 15660,10096 15643,10101 15625,10101 15607,10101 15590,10096 15575,10088 15560,10079 15548,10067 15539,10052 L 14239,7853 12194,6458 C 12181,6449 12171,6438 12163,6425 Z"/>
     <path fill="none" stroke="rgb(0,0,0)" stroke-width="400" stroke-linejoin="round" d="M 14400,7732 L 15625,9804 16850,7732 C 16857,7719 16868,7709 16880,7700 L 18823,6375 16880,5050 C 16868,5041 16857,5031 16850,5018 L 15625,2946 14400,5018 C 14393,5031 14382,5041 14370,5050 L 12427,6375 14370,7700 C 14382,7709 14393,7719 14400,7732 Z"/>
    </g>
   </g>
   <g class="com.sun.star.drawing.LineShape">
    <g id="id7">
     <rect class="BoundingBox" stroke="none" fill="none" x="4201" y="5763" width="8953" height="401"/>
     <path fill="none" stroke="rgb(0,0,0)" stroke-width="400" stroke-linejoin="round" d="M 4402,5963 L 12952,5963"/>
    </g>
   </g>
   <g class="com.sun.star.drawing.LineShape">
    <g id="id8">
     <rect class="BoundingBox" stroke="none" fill="none" x="4202" y="17552" width="12051" height="411"/>
     <path fill="none" stroke="rgb(0,0,0)" stroke-width="400" stroke-linejoin="round" d="M 4402,17762 L 16052,17752"/>
    </g>
   </g>
   <g class="com.sun.star.drawing.LineShape">
    <g id="id9">
     <rect class="BoundingBox" stroke="none" fill="none" x="4300" y="5800" width="401" height="12151"/>
     <path fill="none" stroke="rgb(0,0,0)" stroke-width="400" stroke-linejoin="round" d="M 4500,17750 L 4500,6000"/>
    </g>
   </g>
   <g class="com.sun.star.drawing.LineShape">
    <g id="id10">
     <rect class="BoundingBox" stroke="none" fill="none" x="15800" y="9300" width="401" height="8651"/>
     <path fill="none" stroke="rgb(0,0,0)" stroke-width="400" stroke-linejoin="round" d="M 16000,17750 L 16000,9500"/>
    </g>
   </g>
  </g>
 </g>
</svg>