<?xml version="1.0" encoding="UTF-8"?>
<!DOCTYPE svg PUBLIC "-//W3C//DTD SVG 1.1//EN" "http://www.w3.org/Graphics/SVG/1.1/DTD/svg11.dtd">
<svg version="1.2" width="172.02mm" height="172.02mm" viewBox="0 0 17202 17202" preserveAspectRatio="xMidYMid" fill-rule="evenodd" stroke-width="28.222" stroke-linejoin="round" xmlns="http://www.w3.org/2000/svg" xmlns:ooo="http://xml.openoffice.org/svg/export" xmlns:xlink="http://www.w3.org/1999/xlink" xmlns:presentation="http://sun.com/xmlns/staroffice/presentation" xmlns:smil="http://www.w3.org/2001/SMIL20/" xmlns:anim="urn:oasis:names:tc:opendocument:xmlns:animation:1.0" xmlns:svg="urn:oasis:names:tc:opendocument:xmlns:svg-compatible:1.0" xml:space="preserve">
 <defs class="EmbeddedBulletChars">
  <g id="bullet-char-template-57356" transform="scale(0.00048828125,-0.00048828125)">
   <path d="M 580,1141 L 1163,571 580,0 -4,571 580,1141 Z"/>
  </g>
  <g id="bullet-char-template-57354" transform="scale(0.00048828125,-0.00048828125)">
   <path d="M 8,1128 L 1137,1128 1137,0 8,0 8,1128 Z"/>
  </g>
  <g id="bullet-char-template-10146" transform="scale(0.00048828125,-0.00048828125)">
   <path d="M 174,0 L 602,739 174,1481 1456,739 174,0 Z M 1358,739 L 309,1346 659,739 1358,739 Z"/>
  </g>
  <g id="bullet-char-template-10132" transform="scale(0.00048828125,-0.00048828125)">
   <path d="M 2015,739 L 1276,0 717,0 1260,543 174,543 174,936 1260,936 717,1481 1274,1481 2015,739 Z"/>
  </g>
  <g id="bullet-char-template-10007" transform="scale(0.00048828125,-0.00048828125)">
   <path d="M 0,-2 C -7,14 -16,27 -25,37 L 356,567 C 262,823 215,952 215,954 215,979 228,992 255,992 264,992 276,990 289,987 310,991 331,999 354,1012 L 381,999 492,748 772,1049 836,1024 860,1049 C 881,1039 901,1025 922,1006 886,937 835,863 770,784 769,783 710,716 594,584 L 774,223 C 774,196 753,168 711,139 L 727,119 C 717,90 699,76 672,76 641,76 570,178 457,381 L 164,-76 C 142,-110 111,-127 72,-127 30,-127 9,-110 8,-76 1,-67 -2,-52 -2,-32 -2,-23 -1,-13 0,-2 Z"/>
  </g>
  <g id="bullet-char-template-10004" transform="scale(0.00048828125,-0.00048828125)">
   <path d="M 285,-33 C 182,-33 111,30 74,156 52,228 41,333 41,471 41,549 55,616 82,672 116,743 169,778 240,778 293,778 328,747 346,684 L 369,508 C 377,444 397,411 428,410 L 1163,1116 C 1174,1127 1196,1133 1229,1133 1271,1133 1292,1118 1292,1087 L 1292,965 C 1292,929 1282,901 1262,881 L 442,47 C 390,-6 338,-33 285,-33 Z"/>
  </g>
  <g id="bullet-char-template-9679" transform="scale(0.00048828125,-0.00048828125)">
   <path d="M 813,0 C 632,0 489,54 383,161 276,268 223,411 223,592 223,773 276,916 383,1023 489,1130 632,1184 813,1184 992,1184 1136,1130 1245,1023 1353,916 1407,772 1407,592 1407,412 1353,268 1245,161 1136,54 992,0 813,0 Z"/>
  </g>
  <g id="bullet-char-template-8226" transform="scale(0.00048828125,-0.00048828125)">
   <path d="M 346,457 C 273,457 209,483 155,535 101,586 74,649 74,723 74,796 101,859 155,911 209,963 273,989 346,989 419,989 480,963 531,910 582,859 608,796 608,723 608,648 583,586 532,535 482,483 420,457 346,457 Z"/>
  </g>
  <g id="bullet-char-template-8211" transform="scale(0.00048828125,-0.00048828125)">
   <path d="M -4,459 L 1135,459 1135,606 -4,606 -4,459 Z"/>
  </g>
  <g id="bullet-char-template-61548" transform="scale(0.00048828125,-0.00048828125)">
   <path d="M 173,740 C 173,903 231,1043 346,1159 462,1274 601,1332 765,1332 928,1332 1067,1274 1183,1159 1299,1043 1357,903 1357,740 1357,577 1299,437 1183,322 1067,206 928,148 765,148 601,148 462,206 346,322 231,437 173,577 173,740 Z"/>
  </g>
 </defs>
 <g class="Page">
  <g class="com.sun.star.drawing.CustomShape">
   <g id="id3">
    <rect class="BoundingBox" stroke="none" fill="none" x="0" y="0" width="17202" height="17202"/>
    <path fill="rgb(255,255,255)" fill-opacity="0.2" stroke="none" d="M 2933,100 L 2934,100 C 2436,100 1947,231 1517,480 1086,728 728,1086 480,1517 231,1947 100,2436 100,2934 L 100,14267 100,14267 C 100,14765 231,15254 480,15684 728,16115 1086,16473 1517,16721 1947,16970 2436,17101 2934,17101 L 14267,17101 14267,17101 C 14765,17101 15254,16970 15684,16721 16115,16473 16473,16115 16721,15684 16970,15254 17101,14765 17101,14267 L 17101,2933 17101,2934 17101,2933 C 17101,2436 16970,1947 16721,1517 16473,1086 16115,728 15684,480 15254,231 14765,100 14267,100 L 2933,100 Z"/>
    <path fill="none" stroke="rgb(255,255,255)" stroke-width="200" stroke-linejoin="round" d="M 2933,100 L 2934,100 C 2436,100 1947,231 1517,480 1086,728 728,1086 480,1517 231,1947 100,2436 100,2934 L 100,14267 100,14267 C 100,14765 231,15254 480,15684 728,16115 1086,16473 1517,16721 1947,16970 2436,17101 2934,17101 L 14267,17101 14267,17101 C 14765,17101 15254,16970 15684,16721 16115,16473 16473,16115 16721,15684 16970,15254 17101,14765 17101,14267 L 17101,2933 17101,2934 17101,2933 C 17101,2436 16970,1947 16721,1517 16473,1086 16115,728 15684,480 15254,231 14765,100 14267,100 L 2933,100 Z"/>
   </g>
  </g>
  <g class="com.sun.star.drawing.CustomShape">
   <g id="id4">
    <rect class="BoundingBox" stroke="none" fill="none" x="3250" y="3499" width="10502" height="10003"/>
    <path fill="rgb(255,255,255)" stroke="none" d="M 13751,8501 C 13751,9378 13508,10241 13048,11001 12587,11761 11924,12392 11126,12831 10328,13270 9422,13501 8501,13501 7579,13501 6673,13270 5875,12831 5077,12392 4414,11761 3953,11001 3493,10241 3250,9378 3250,8501 3250,7623 3493,6760 3953,6000 4414,5240 5077,4609 5875,4170 6673,3731 7579,3500 8500,3500 9422,3500 10328,3731 11126,4170 11924,4609 12587,5240 13048,6000 13508,6760 13751,7623 13751,8500 L 13751,8501 Z M 13547,8501 C 13547,9344 13314,10173 12871,10904 12428,11634 11791,12241 11024,12663 10257,13085 9386,13307 8501,13307 7615,13307 6744,13085 5977,12663 5210,12241 4573,11634 4130,10904 3687,10173 3454,9344 3454,8501 3454,7657 3687,6828 4130,6097 4573,5367 5210,4760 5977,4338 6744,3916 7615,3694 8500,3694 9386,3694 10257,3916 11024,4338 11791,4760 12428,5367 12871,6097 13314,6828 13547,7657 13547,8500 L 13547,8501 Z"/>
   </g>
  </g>
  <g class="com.sun.star.drawing.ClosedFreeHandShape">
   <g id="id5">
    <rect class="BoundingBox" stroke="none" fill="none" x="5309" y="5309" width="6382" height="6382"/>
    <path fill="rgb(255,255,255)" stroke="none" d="M 5310,7927 C 5854,8972 5914,8867 6238,9478 6432,9845 6717,10548 7225,11690 8790,9065 8674,9423 9254,8468 9834,7514 10182,7036 11690,5366 11222,5353 11226,5247 10994,5366 10715,5529 10182,5963 9254,7275 9051,7562 8326,8707 7398,10075 7117,9560 7008,9075 6818,8762 6247,7823 5696,7293 5774,7450 L 5310,7927 Z"/>
   </g>
  </g>
 </g>
</svg>